<?xml version="1.0" encoding="UTF-8" standalone="no"?>
<svg
   version="1.1"
   id="Layer_1"
   x="0px"
   y="0px"
   width="100%"
   viewBox="0 0 1024 1024"
   enable-background="new 0 0 1024 1024"
   xml:space="preserve"
   sodipodi:docname="ic_app_2.svg"
   inkscape:version="1.4 (e7c3feb100, 2024-10-09)"
   xmlns:inkscape="http://www.inkscape.org/namespaces/inkscape"
   xmlns:sodipodi="http://sodipodi.sourceforge.net/DTD/sodipodi-0.dtd"
   xmlns="http://www.w3.org/2000/svg"
   xmlns:svg="http://www.w3.org/2000/svg"><defs
   id="defs14" /><sodipodi:namedview
   id="namedview14"
   pagecolor="#ffffff"
   bordercolor="#000000"
   borderopacity="0.25"
   inkscape:showpageshadow="2"
   inkscape:pageopacity="0.0"
   inkscape:pagecheckerboard="0"
   inkscape:deskcolor="#d1d1d1"
   inkscape:zoom="4.7866669"
   inkscape:cx="108.63509"
   inkscape:cy="704.97908"
   inkscape:window-width="1920"
   inkscape:window-height="1008"
   inkscape:window-x="0"
   inkscape:window-y="0"
   inkscape:window-maximized="1"
   inkscape:current-layer="Layer_1" />
<path
   fill="#000000"
   opacity="1"
   stroke="none"
   d="m 880.16565,104.33895 c 44.8966,36.47159 71.24485,83.06791 80.2985,139.34477 5.35372,33.27829 3.53732,66.92713 3.62796,100.41956 0.36321,134.26359 0.32419,268.5283 0.35526,402.79262 0.009,37.98408 -5.93685,74.8147 -23.31179,109.08552 -29.9812,59.13594 -77.73489,95.90562 -142.24051,111.49113 -16.8038,4.06003 -33.7116,5.94485 -51.04925,5.9219 C 588.7568,973.18358 429.66395,973.83922 270.57977,972.93334 203.61869,972.55218 148.47892,945.00236 106.10318,892.98123 74.129466,853.7298 58.9181,808.57212 58.641549,758.24213 c 1.64092,-164.02403 0.142121,-328.08886 0.69218,-492.12782 1.722906,-31.5455 9.224208,-61.54727 23.962481,-89.695 17.65963,-33.72703 41.57163,-61.87394 73.41047,-83.152147 36.60403,-24.46276 77.11632,-37.102894 120.9921,-37.749055 153.64833,-2.262738 307.31096,-1.057559 460.96693,-0.914344 52.54706,0.04898 100.11449,15.830431 141.49994,49.735186 M 557.62332,260.05186 c -12.54878,13.97839 -20.88481,30.10494 -23.74526,48.66063 -2.14681,13.92633 -2.7,28.07118 -1.75727,42.11637 0.80082,11.93353 -2.97525,22.10758 -9.31899,31.74721 -10.502,15.95823 -22.55965,30.51583 -37.31474,42.85889 -5.80281,4.85433 -8.76791,5.79773 -13.24299,-0.0215 -14.19082,-18.45326 -26.17781,-37.92493 -26.02391,-62.44116 0.0765,-12.18627 0.44956,-24.4065 -1.38345,-36.53594 -3.09323,-20.46945 -10.41789,-39.04951 -28.83011,-50.21334 -28.1137,-17.04618 -75.24577,-8.89789 -86.54872,37.28168 -3.1055,12.68756 -3.28153,25.60173 -3.07058,38.46135 0.34163,20.82721 -3.84901,39.92305 -17.36613,56.52584 -8.89324,10.92334 -16.95486,22.51363 -25.65259,33.60009 -36.52216,46.55248 -30.46111,110.10807 9.46537,143.70108 13.7847,11.59802 27.54787,23.66446 46.38342,26.943 11.54088,2.00878 23.42102,0.83573 34.44091,4.40809 2.45689,-2.70224 1.84286,-5.41722 1.51335,-7.85159 -1.10879,-8.19166 -0.66691,-16.40456 -0.69979,-24.61023 -0.0503,-12.54654 4.11964,-22.53406 16.9239,-27.1672 2.52262,-0.91284 3.52079,-2.43696 3.21196,-5.36975 -2.41149,-22.90108 -2.15436,-45.90341 -2.26747,-68.88417 -0.13819,-28.06302 18.06295,-46.14957 46.3526,-46.192 22.61649,-0.0339 45.23324,0.0521 67.84956,-0.0141 4.77723,-0.014 9.67771,-0.51965 12.37459,-5.22779 5.98294,-10.44506 14.49921,-19.0655 20.89025,-29.20783 8.05397,-12.7813 16.26814,-25.71808 16.08152,-41.39323 -0.12878,-10.80971 0.72668,-21.57124 0.51097,-32.35179 -0.28034,-14.01157 3.65213,-26.84755 10.26068,-39.01877 20.53076,-37.81194 67.32472,-54.85086 103.95392,-36.92145 24.14057,11.81642 42.96602,28.85606 47.56984,57.23551 2.15414,13.27941 1.61467,26.65657 1.91617,40.01525 0.35527,15.73817 4.23379,30.49856 12.61403,44.07214 9.41341,15.24698 20.68595,29.11963 31.75383,43.11498 22.19263,28.06303 29.65553,59.61656 23.46819,94.4875 -11.27987,63.57243 -66.70292,104.4569 -131.51711,98.61975 -16.71359,-1.5052 -17.76214,-4.13411 -18.55623,16.92353 -0.17229,4.57047 1.76391,6.38523 6.13184,6.55836 19.81797,0.78561 39.62473,0.30294 59.05764,-3.68403 30.10022,-6.17531 54.8457,-21.59843 74.76448,-44.90589 20.93021,-24.49117 33.7545,-52.371 35.96086,-84.66008 2.20602,-32.28542 -5.92683,-61.68904 -24.67822,-88.33697 -9.88599,-14.04922 -21.05192,-27.09292 -31.03191,-41.04462 -7.20877,-10.07768 -12.25323,-20.92353 -13.92936,-33.41231 -1.47968,-11.02516 -0.44478,-22.02941 -0.98847,-33.02587 -1.5073,-30.48957 -12.22673,-56.58167 -36.57335,-76.25135 -15.70545,-12.68847 -33.02367,-21.59621 -53.51015,-23.21372 -3.95369,-0.31214 -5.62629,-1.90856 -6.37033,-5.8965 -1.11276,-5.96458 -2.87503,-11.84848 -4.81968,-17.6132 -12.5297,-37.14333 -40.00356,-59.81018 -74.3765,-75.67839 -9.80898,-4.52827 -17.71587,-2.25214 -20.95222,5.76478 -2.97232,7.36287 1.46017,13.61876 12.0377,16.99233 0.22424,0.0714 0.44107,0.16611 0.66418,0.24131 33.37853,11.25205 54.62992,33.77755 63.72967,67.73199 1.42831,5.32966 0.75731,7.84084 -5.60473,8.98119 -23.49624,4.21149 -43.06597,15.7772 -59.75117,34.10194 m 27.97223,46.14334 c -6.4632,14.17051 -6.24189,29.30462 -5.52773,44.24987 1.00332,20.99527 -4.70446,39.78659 -16.00806,57.21561 -4.59865,7.09078 -9.07878,14.25995 -13.4877,21.4694 -1.41685,2.31683 -3.71194,4.34955 -3.2265,7.53834 2.16329,2.02348 4.81433,1.85315 7.35698,1.52168 11.26105,-1.46824 22.58537,-1.3604 33.87387,-1.03469 29.6721,0.85618 45.19154,24.07352 43.9961,44.24484 -1.34417,22.67882 -2.29096,45.42566 -1.65594,68.18194 0.0918,3.28799 -0.31841,6.48022 3.39094,8.48384 10.57934,5.71413 13.92048,15.11718 13.61172,26.5597 -0.28889,10.70445 -0.0618,21.42282 -0.0618,32.20462 3.01736,1.3896 6.19121,0.83969 9.05943,0.33603 24.85328,-4.36477 48.28799,-12.63121 69.10115,-27.07478 41.11632,-28.53297 49.68213,-82.77113 28.89398,-123.09125 -8.83666,-17.13972 -20.68266,-32.44588 -33.17015,-47.15563 -13.48355,-15.88302 -23.70615,-32.7988 -24.54599,-54.65869 -0.56554,-14.72007 0.81247,-29.58989 -2.11936,-44.20397 -3.9588,-19.73303 -12.81161,-36.63755 -31.19753,-46.26922 -29.9024,-15.66476 -63.72906,-2.0791 -78.28342,31.48236 M 513.80812,779.6452 c 13.66904,-0.0967 27.34085,-0.0584 41.00609,-0.34049 8.1635,-0.16858 14.92129,-3.64105 17.91277,-11.40522 1.71928,-4.46216 1.89588,-9.65139 2.07774,-14.53882 0.65444,-17.58078 1.04552,-35.17172 1.46484,-52.76049 0.0935,-3.92808 0.25196,-7.09031 5.3116,-8.40717 15.73515,-4.0951 24.85302,-16.21674 24.69299,-32.48753 -0.14993,-15.24965 -0.56286,-30.49928 -1.07961,-45.74154 -0.16832,-4.96496 0.57156,-8.42075 6.74674,-7.74439 3.15814,0.34574 4.70506,-1.13506 4.61814,-4.5508 -0.0832,-3.26727 0.46817,-6.54538 0.60929,-9.82435 0.44995,-10.44741 0.42665,-10.4291 -10.33534,-10.19012 -1.83011,0.0407 -3.73739,0.6865 -5.9491,-0.689 -0.1489,-1.02863 -0.4831,-2.36759 -0.51616,-3.71385 -0.37943,-15.4796 -1.01436,-30.961 -0.97984,-46.44055 0.0397,-17.8168 0.57278,-35.6269 0.0965,-53.45264 -0.16116,-6.02883 -1.60484,-8.73472 -8.42729,-8.69531 -52.789,0.30526 -105.58054,0.35129 -158.37027,0.1764 -6.64843,-0.0221 -8.38705,2.19974 -8.3363,8.56396 0.25653,32.13117 0.10231,64.26577 0.0313,96.39913 -0.006,2.7417 0.71808,5.65568 -1.37603,8.49597 -2.13256,-0.15825 -4.43654,-0.38889 -6.74626,-0.49024 -9.75138,-0.42767 -9.83946,-0.24198 -9.09189,9.10587 0.22192,2.77463 0.21737,5.70889 -0.44681,8.3819 -1.26407,5.08685 0.51793,7.08962 5.58957,6.81969 3.58549,-0.19084 6.60234,0.28016 6.51054,5.09391 -0.26394,13.84243 1.49954,28.03275 -1.0031,41.44425 -3.07701,16.48932 10.35437,35.76779 24.20273,40.26691 3.36767,1.09413 4.9536,2.68746 5.2977,6.32841 1.21193,12.8249 2.57074,25.58737 1.48874,38.53838 -0.6804,8.14438 -0.81515,16.36733 0.77804,24.54438 2.23156,11.45309 9.25447,17.35934 21.09754,17.31515 13.90355,-0.0519 27.80742,-0.0186 43.12514,-0.002 M 246.57902,562.67003 c -16.49596,-38.54403 -15.40663,-76.11772 6.24612,-112.5647 7.70417,-12.96806 17.04893,-24.79178 26.53406,-36.43331 15.75607,-19.338 24.87491,-40.49036 22.92787,-66.01993 -1.03163,-13.52712 -0.23568,-27.22969 3.70348,-40.43543 10.73665,-35.99365 45.29102,-59.83323 83.45199,-60.66527 34.95811,-0.76227 71.17122,30.11087 77.66114,62.40051 2.81275,13.99459 2.52131,27.9685 2.71716,42.0028 0.1731,12.40715 2.78454,24.07464 8.63024,35.13965 7.46025,14.12112 7.86986,14.12925 19.73481,4.06755 4.20018,-3.56179 4.33663,-6.37875 2.01875,-10.72168 -3.10177,-5.81143 -5.54891,-11.93203 -5.86711,-18.65398 -0.52116,-11.00897 -1.19346,-22.01434 -1.49181,-33.02957 -1.34974,-49.8341 -34.62442,-90.40374 -83.41375,-101.30568 -5.28902,-1.18181 -7.83334,-2.95532 -6.01769,-8.96224 9.66338,-31.97024 28.81591,-55.37052 60.66382,-67.45726 4.16643,-1.58122 8.77301,-2.28725 11.5834,-6.20495 3.60361,-5.02341 3.49723,-10.09372 -0.54343,-14.82228 -4.52032,-5.28985 -9.81918,-7.51512 -16.86725,-4.64963 -41.05141,16.69002 -66.6856,47.07245 -78.69202,88.96527 -2.18793,7.63416 -4.90972,10.7265 -12.88457,12.40376 -39.32074,8.26964 -66.6797,31.25404 -80.92562,68.9002 -6.40421,16.92374 -7.30602,34.79176 -6.9633,52.67067 0.31936,16.66317 -4.83019,31.32054 -15.06345,44.37095 -9.57004,12.20458 -18.64017,24.76143 -27.3957,37.57034 -26.29148,38.46349 -32.46424,80.72637 -18.46229,124.1154 12.78584,39.62057 37.89706,70.37044 77.55273,88.49742 23.01245,10.5192 46.7698,15.03002 71.2432,14.38994 20.59006,-0.53856 18.60742,1.3944 18.61195,-17.7982 10e-4,-6.16026 -2.67997,-7.96789 -8.84879,-7.34948 -29.82798,2.99006 -58.20226,0.83376 -84.14324,-17.49697 -19.12012,-13.51095 -35.29834,-28.69149 -45.7007,-50.9239 m 484.21986,132.25528 c 1.00858,-7.16733 -2.28258,-9.31434 -9.26772,-9.25974 -29.90644,0.23407 -59.81738,0.14003 -89.72426,-0.11687 -6.07807,-0.0521 -8.30834,2.06802 -8.41665,8.12711 -0.30574,17.10412 -1.65957,34.19113 -0.19741,51.31107 0.26948,3.15605 0.76656,7.25811 -3.88241,7.74733 -5.33852,0.56168 -5.90966,3.74548 -5.37357,7.86568 1.72879,13.28755 1.49669,26.64429 1.35626,39.98478 -0.16918,16.06629 7.03373,27.37007 21.69073,33.80431 3.82924,1.68091 5.1003,3.85208 3.62087,7.61072 -1.58732,4.03286 -1.56194,8.29087 -1.67294,12.47563 -0.22458,8.46451 1.69029,10.33462 10.09685,10.74312 5.63061,0.27361 11.28806,0.71143 16.88192,0.88499 14.27418,0.44288 28.58117,-0.1525 42.87487,-0.34446 4.82591,-0.0648 6.59517,-2.86247 6.49237,-7.29523 -0.13024,-5.62266 0.0625,-11.27756 -0.49898,-16.85716 -0.41189,-4.09295 0.60221,-6.03004 4.58898,-7.95629 9.12012,-4.40638 16.20926,-11.90921 16.74329,-22.02928 0.89999,-17.05151 0.94669,-34.14807 2.82834,-51.15832 0.32151,-2.90598 -0.043,-6.10767 -3.70159,-6.55261 -5.14388,-0.62547 -4.88727,-4.12759 -4.86034,-7.70064 0.12524,-16.65195 0.26118,-33.30391 0.42139,-51.28417 m -338.8496,136.88614 c 7.17049,-5.19208 12.2225,-12.00481 13.15171,-20.80603 1.81713,-17.21141 0.602,-34.67184 4.17812,-51.77047 0.5254,-2.51192 0.38074,-5.84349 -3.19302,-5.90556 -6.21462,-0.10802 -6.39418,-3.93297 -6.39833,-8.49055 -0.0149,-16.41152 -0.17129,-32.8086 1.08981,-49.208 0.73573,-9.56809 -1.26675,-11.2767 -10.72091,-11.01279 -8.46693,0.23631 -16.92421,1.00972 -25.38937,1.07393 -20.95741,0.15903 -41.91891,0.21105 -62.87423,-0.051 -6.58538,-0.0823 -9.16963,1.96107 -8.99299,8.88255 0.43684,17.11031 0.17526,34.23849 0.1606,51.35956 -0.002,2.76516 0.5458,6.30297 -3.2377,6.82158 -5.91717,0.81097 -5.65801,4.88278 -5.16019,8.84558 1.78415,14.2033 2.23903,28.49816 2.2335,42.75158 -0.005,11.4218 3.9105,21.55012 13.48722,26.1371 11.74718,5.62645 11.44046,12.68925 8.78298,22.95141 -2.09639,8.09546 1.21302,11.61272 9.49994,11.68983 9.23458,0.0859 18.30295,0.6865 27.13267,3.57399 3.05659,0.99958 6.30583,0.81579 8.85789,-0.97963 3.17415,-2.23306 6.53513,-2.19584 10.07457,-2.26159 22.07147,-0.40979 21.56545,4.40645 20.35697,-22.88591 -0.25916,-5.85296 0.91536,-8.61159 6.96076,-10.71552 M 305.3709,174.82353 c -8.26578,-6.78905 -13.87313,-14.80158 -13.02441,-26.32044 2.48891,0 4.13367,-0.19905 5.71602,0.0298 24.88827,3.59875 46.00195,14.38323 63.16382,32.80824 2.40718,2.58435 4.78729,6.9069 9.22344,4.49989 4.67132,-2.53461 3.70658,-7.19483 2.27326,-11.29431 -7.90906,-22.62053 -22.99161,-37.73166 -46.6595,-43.66323 -17.38555,-4.35715 -35.12046,-2.25388 -52.71731,-2.76929 -6.80561,-0.19935 -9.26128,2.85524 -8.78846,9.41026 1.21824,16.89142 5.75689,32.75688 14.87684,47.07282 16.08463,25.2486 42.28678,35.49489 69.32423,27.47387 7.89032,-2.34077 8.26418,-4.01533 2.75122,-10.31004 -6.05908,-6.91821 -13.60241,-11.44816 -22.20841,-14.41637 -8.28359,-2.85701 -15.99498,-6.82013 -23.93074,-12.52114 m 413.92697,-0.16513 c -7.23356,5.70815 -15.16038,10.20053 -23.47484,14.21095 -9.9004,4.77537 -18.29142,11.56171 -24.99586,20.71276 22.43241,10.19898 49.11918,3.70251 65.79808,-14.48565 15.58055,-16.99027 19.481,-37.99815 22.30831,-59.52105 0.74221,-5.65025 -3.08263,-7.43308 -7.91302,-7.44253 -12.01,-0.0235 -24.0578,-0.47316 -36.02327,0.29141 -33.03818,2.11118 -54.18418,20.3925 -60.74465,51.76862 -0.56406,2.69768 -1.56393,5.4585 0.63129,7.79056 2.03995,0.64467 3.48253,-0.23438 4.66296,-1.37826 10.03867,-9.72755 22.45572,-16.20855 33.56616,-24.46991 9.24259,-6.87248 19.77784,-10.63004 30.97657,-13.0042 4.69997,-0.99638 6.38517,-0.0951 6.28029,5.00164 -0.17418,8.46487 -3.96742,14.74701 -11.07202,20.52566 M 498.22611,900.75933 c -0.0374,6.61613 3.28762,9.23138 9.77447,8.30634 1.61278,-0.23005 3.29107,0.008 4.93924,0.008 9.87527,0.004 9.7067,-0.006 10.16451,-9.5473 1.58568,-33.04834 0.49268,-66.11362 0.72789,-99.16988 0.0281,-3.95232 -0.75068,-7.91228 -1.18777,-11.86512 -0.19456,-1.75939 -0.87186,-2.89617 -2.9257,-3.33054 -12.68468,-2.68255 -19.82475,3.01523 -20.43572,15.88284 -1.55762,32.80688 -1.24029,65.6276 -1.05692,99.71516 m -160.54267,7.09735 c 4.18109,0.22642 8.38907,0.23364 12.53613,0.73799 4.59985,0.55953 6.64458,-1.41778 6.72456,-5.76759 0.10746,-5.84205 0.14703,-11.68572 0.15484,-17.52887 0.0121,-9.00462 -4.01555,-12.48894 -13.3388,-11.82798 -4.43814,0.31463 -7.05744,2.22025 -7.0151,6.90592 0.0801,8.87093 0.17949,17.7417 0.93837,27.48053 M 685.3294,890.42266 c -0.087,-14.20597 -0.0823,-14.09422 -13.05397,-13.57036 -4.03441,0.1629 -6.10362,1.44779 -6.02127,5.73828 0.13456,7.00443 0.10758,14.01539 -0.027,21.02017 -0.0754,3.9285 1.70254,5.16517 5.52064,5.36253 13.59067,0.70258 13.64997,0.76215 13.60224,-12.98452 -0.005,-1.40145 -0.009,-2.80291 -0.0206,-5.5661 z"
   id="path1"
   style="fill:#000000;stroke-width:1.41129"
   sodipodi:nodetypes="cssssscssscscssccscsssscssssssscssssssssssscsssscsssscssssscssssssscssccsssccssscscccsssssccsscscsssscsccsscscsccssssssssssccssssssssssssssssssscssscssscsscccsssssssssssssssssscccssssssssccsscssssscsccccsscsscssssccscsssssccsssccscsssssccssssscssssssss" />
<path
   fill="#000000"
   opacity="1"
   stroke="none"
   d="m 307.35039,572.0534 c -19.60371,-18.65953 -27.9066,-41.30396 -26.53956,-67.46935 0.81666,-15.63064 4.44444,-30.54154 14.33707,-43.33132 4.51781,-5.84087 8.28063,-7.03963 14.39818,-2.8657 18.14249,12.37845 15.45109,8.67271 4.37121,22.43885 -10.77114,13.38253 -11.7067,28.26937 -7.70103,43.83738 2.26294,8.79478 5.59423,17.39072 9.21899,25.74262 3.41519,7.86913 10.75642,12.13418 17.7864,16.48106 6.01976,3.72228 6.06796,4.88347 0.74533,9.71441 -9.42318,8.55279 -13.34317,7.92913 -26.61659,-4.54795 z"
   id="path2"
   style="stroke-width:1.41129" />
<path
   fill="#000000"
   opacity="1"
   stroke="none"
   d="m 558.00794,499.73738 c -0.0231,-4.86877 -0.0231,-9.06342 -0.0231,-13.87927 6.92032,0 14.03286,0 21.05986,0 0.33913,0.60612 0.75301,1.00246 0.75802,1.40386 0.36968,29.79345 0.0132,59.60061 1.64376,89.36938 0.24142,4.40586 -1.20625,6.36143 -5.94505,6.35489 -42.89293,-0.0588 -85.78619,0.0397 -128.67932,0.0749 -0.69284,6.1e-4 -1.38586,-0.21533 -2.11473,-0.3362 -2.11281,-2.15129 -1.32527,-4.8758 -1.32584,-7.34475 -0.006,-27.22797 0.20016,-54.45679 0.0212,-81.68331 -0.0355,-5.39313 1.32466,-7.8277 7.09722,-7.34944 4.88852,0.40492 9.83773,0.0835 14.91019,0.0835 1.89663,4.33648 0.92274,8.59598 1.01536,12.69259 0.25454,11.25882 0.16137,22.52491 0.29196,33.78716 0.0673,5.80877 3.36469,8.57386 8.98253,8.50052 5.93422,-0.0774 7.44657,-3.92154 7.22384,-9.04746 -0.60057,-13.82335 -1.16973,-27.64807 -1.77285,-41.47134 -0.0698,-1.60003 -0.75278,-3.23125 0.68404,-5.16358 6.69719,-1.48685 13.59714,0.87107 20.30293,0.54889 2.24909,2.56994 1.41486,5.27123 1.43264,7.74572 0.0911,12.67312 -0.0679,25.34865 0.0945,38.02036 0.0659,5.1364 1.898,9.34979 8.07434,9.45483 6.4392,0.10958 8.60153,-3.68737 8.50832,-9.51913 -0.20983,-13.12925 -0.14717,-26.26686 -0.61766,-39.38605 -0.19732,-5.50175 1.58187,-7.3705 7.20334,-7.34949 14.29577,0.0535 14.39347,-0.19156 14.58017,14.19484 0.13707,10.55942 -0.0331,21.12263 -0.0441,31.68417 -0.006,5.59381 0.79729,10.51785 8.19656,10.4612 6.96046,-0.0533 8.72739,-4.23127 8.65695,-10.19056 -0.12214,-10.32668 -0.13404,-20.65473 -0.21517,-31.65625 z"
   id="path3"
   style="stroke-width:1.41129" />
<path
   fill="#000000"
   opacity="1"
   stroke="none"
   d="m 439.17205,610.51303 c -0.15989,-5.81067 3.84119,-4.37672 6.52599,-4.38498 27.78139,-0.0857 55.56369,0.0492 83.34479,-0.0746 15.05317,-0.0671 30.10505,-0.73747 45.15685,-0.7165 11.07124,0.0154 11.96115,1.30267 10.84709,12.39387 -1.05761,10.53029 -1.07306,21.03271 0.0712,31.57098 1.80172,16.59411 -7.85078,26.80109 -24.4009,26.37085 -32.94056,-0.85654 -65.87478,-1.45484 -98.82665,0.0811 -13.88849,0.64747 -22.08875,-7.69488 -22.67332,-21.74895 -0.59458,-14.29365 1.30191,-28.59118 -0.0451,-43.4918 m 24.79825,26.16425 c -4.21446,2.0871 -8.29974,10.88463 -6.71464,15.22196 1.92909,5.27831 6.7745,3.52217 10.37756,3.26015 16.71113,-1.21568 33.43341,-0.52918 50.147,-0.75518 14.6009,-0.19746 29.2042,-0.2131 43.80604,-0.34849 2.85475,-0.0265 5.78632,-0.10527 7.11573,-3.36932 2.5265,-6.20291 -2.74461,-14.22041 -9.53771,-14.2229 -31.32631,-0.0107 -62.65253,0.0727 -95.19398,0.21378 z"
   id="path4"
   style="stroke-width:1.41129" />
<path
   fill="#000000"
   opacity="1"
   stroke="none"
   d="m 546.87609,716.84491 c -23.54519,0.0168 -46.4046,-0.0924 -69.26053,0.13891 -5.78546,0.0585 -8.75841,-0.82696 -9.26815,-7.78325 -1.05337,-14.37411 -1.5975,-14.34729 12.45763,-14.35838 22.62266,-0.0178 45.24536,-0.0349 67.86802,0.001 2.54126,0.004 5.17349,-0.53099 8.10006,0.94051 1.07419,5.54848 0.49657,11.38123 -0.18755,17.1049 -0.68741,5.75246 -5.64608,3.41307 -9.70948,3.95593 z"
   id="path5"
   style="stroke-width:1.41129" />
<path
   fill="#000000"
   opacity="1"
   stroke="none"
   d="m 546.85417,757.70667 c -23.49124,-0.007 -46.30452,-0.26837 -69.10612,0.1323 -6.73103,0.11842 -8.85539,-2.44358 -8.57975,-8.51935 0.16814,-3.70603 0.031,-7.42582 0.031,-10.68982 2.04637,-1.9487 4.01714,-1.40335 5.837,-1.41065 24.92443,-0.10014 49.85051,-0.0423 74.77232,-0.34506 4.77783,-0.0581 6.40873,1.58094 6.07021,6.04354 -0.17668,2.32916 -0.23434,4.69881 -0.0182,7.0199 0.58236,6.25173 -2.33221,8.59911 -9.00662,7.76914 z"
   id="path6"
   style="stroke-width:1.41129" />
<path
   fill="#000000"
   opacity="1"
   stroke="none"
   d="m 690.13294,716.26518 c 0.883,4.599 -2.07671,11.31881 4.26271,11.5443 7.17849,0.25522 4.65518,-6.7058 4.92449,-10.91669 0.35577,-5.56051 0.0876,-11.16065 0.0876,-17.14349 5.04807,-1.15965 10.08113,-0.81846 16.28643,-0.43438 0,7.22364 -0.1413,14.18525 0.0361,21.13871 0.21501,8.42694 0.59065,16.85371 1.10602,25.26776 0.33318,5.43818 -1.21167,8.0389 -7.43586,7.94916 -22.12118,-0.31902 -44.25151,-0.26004 -66.37458,-0.0166 -4.85215,0.0534 -6.02412,-1.76963 -5.98648,-6.14213 0.12109,-14.05347 -1.05166,-28.05055 -2.58502,-42.00869 -0.47836,-4.35368 0.58813,-6.9023 5.51123,-6.46355 2.75584,0.24568 5.66135,-0.57672 8.58929,1.33983 -0.34,6.53824 -0.74886,13.24644 -1.01445,19.96014 -0.15037,3.80171 0.42709,7.3365 5.51521,7.02652 4.95806,-0.30207 4.23958,-4.14281 4.23586,-7.3451 -0.006,-5.15527 -0.14863,-10.31047 -0.2529,-15.46541 -0.0846,-4.18802 1.51084,-6.85639 6.15161,-6.60212 4.44103,0.24328 6.79879,1.94233 6.23602,7.09211 -0.60817,5.56455 -0.2491,11.23492 -0.28993,16.8593 -0.0222,3.06088 0.74842,6.04001 4.30379,6.1215 3.50487,0.0804 4.65578,-2.72295 4.58889,-5.86722 -0.15744,-7.40415 1.39569,-14.95986 -2.73538,-22.32465 2.51044,-0.66295 4.293,-1.11313 6.06382,-1.60518 4.86889,-1.35323 7.74022,-0.13841 7.82636,5.4938 0.0606,3.96986 0.60713,7.93248 0.94928,12.54208 z"
   id="path7"
   style="stroke-width:1.41129" />
<path
   fill="#000000"
   opacity="1"
   stroke="none"
   d="m 703.57154,793.04568 c -20.68095,-0.0719 -40.69925,-0.30836 -60.71229,-0.0798 -6.06227,0.0692 -8.83693,-1.28136 -8.87629,-8.06744 -0.0814,-13.98298 -0.46178,-13.97559 13.7028,-13.9675 20.72262,0.0119 41.44879,0.23114 62.16598,-0.10157 6.69029,-0.10754 10.41121,1.13411 8.89571,8.78601 -0.4409,2.22635 0.009,4.67673 0.31099,6.99084 0.97733,7.50474 0.37296,8.19116 -7.12101,7.40519 -2.57215,-0.26975 -5.13456,-0.63173 -8.36589,-0.9657 z"
   id="path8"
   style="stroke-width:1.41129" />
<path
   fill="#000000"
   opacity="1"
   stroke="none"
   d="m 654.53288,807.49346 c 20.82672,0.45836 41.00169,-0.46042 61.04416,1.97499 -0.19896,9.33919 -3.19189,11.94154 -11.86084,11.76652 -18.31093,-0.36946 -36.63006,-0.32175 -54.94272,-0.62925 -8.80006,-0.14776 -12.41783,-3.47324 -13.55174,-12.05019 6.07099,-2.1813 12.41482,-0.67446 19.31114,-1.06207 z"
   id="path9"
   style="stroke-width:1.41129" />
<path
   fill="#000000"
   opacity="1"
   stroke="none"
   d="m 672.93297,848.95491 c -3.97787,-0.0173 -7.27938,-0.28841 -10.5323,-0.006 -6.98213,0.60699 -8.28443,-3.3296 -8.07245,-9.08009 0.23961,-6.49639 4.83756,-4.98473 8.62632,-4.91364 9.82979,0.1843 19.65882,0.42861 29.4861,0.71633 2.51744,0.0738 5.15804,-0.54226 7.40359,0.87527 1.45387,1.83566 0.32868,3.72185 0.50296,5.50567 0.63388,6.48951 -2.57562,7.87359 -8.46311,7.26885 -6.03274,-0.6197 -12.16432,-0.286 -18.95111,-0.3668 z"
   id="path10"
   style="stroke-width:1.41129" />
<path
   fill="#000000"
   opacity="1"
   stroke="none"
   d="m 334.91699,753.3157 c -7.53582,0.0351 -14.36806,-0.0559 -21.19253,0.13186 -3.94338,0.10861 -5.54659,-1.6688 -5.62741,-5.40827 -0.33417,-15.45364 0.58524,-30.9457 -1.4182,-46.35007 -0.2491,-1.91534 0.69915,-2.97148 2.5679,-3.56291 7.65165,-2.42166 12.87659,1.15818 12.99544,8.99551 0.0675,4.45536 0.14001,8.91073 0.21903,13.36593 0.061,3.43509 0.17772,6.78643 5.02633,6.74913 4.8448,-0.0372 4.1079,-3.58492 4.14458,-6.51918 0.0702,-5.62746 0.192,-11.26758 -0.1009,-16.88215 -0.26857,-5.14695 2.19929,-7.05567 6.79555,-5.94882 4.95684,1.19368 9.67119,0.99064 14.55912,-0.23209 5.42022,-1.35581 7.8144,1.09242 7.91257,6.62318 0.1036,5.83653 -0.49513,11.70651 0.81456,17.52027 0.84795,3.76389 2.59222,5.76123 6.76373,5.41032 4.47061,-0.37616 4.39327,-3.40971 4.3653,-6.56841 -0.0394,-4.45563 -0.12204,-8.91143 -0.11437,-13.36698 0.0158,-9.24694 0.15175,-9.37227 9.5059,-9.14396 1.37197,0.0335 2.7391,0.26469 4.09297,0.40275 0,16.90254 -0.0276,33.45314 0.0169,50.00348 0.0134,4.96531 -3.44406,4.78324 -6.82088,4.78445 -14.5996,0.005 -29.19914,-0.007 -44.50561,-0.004 m 13.69873,-47.74062 c -0.18536,-1.98522 -0.72383,-3.817 -3.1616,-3.77102 -2.29108,0.0434 -3.00437,1.86257 -3.50267,3.7338 -1.39914,5.25441 -1.00241,10.61187 -0.69508,15.92369 0.14504,2.50762 0.73289,5.50936 4.27738,5.15742 2.88625,-0.28668 3.47154,-2.79336 3.45437,-5.25121 -0.0339,-4.87023 -0.18518,-9.7396 -0.3724,-15.79268 z"
   id="path11"
   style="stroke-width:1.41129" />
<path
   fill="#000000"
   opacity="1"
   stroke="none"
   d="m 339.15777,770.87482 c 16.3787,-8.6e-4 32.05053,-8.6e-4 48.40873,-8.6e-4 0,6.5887 -0.009,12.14733 0.004,17.70603 0.007,2.9267 -1.49543,4.24175 -4.36498,4.24089 -25.33591,-0.007 -50.6718,-0.005 -76.61381,-0.005 -0.50946,-6.35265 -1.03503,-12.11655 -1.4111,-17.89008 -0.22895,-3.51545 1.25505,-4.85853 5.08831,-4.66203 9.37969,0.48071 18.78626,0.44134 28.88888,0.61052 z"
   id="path12"
   style="stroke-width:1.41129" />
<path
   fill="#000000"
   opacity="1"
   stroke="none"
   d="m 365.73215,807.62679 c 6.69637,0.54208 12.72809,1.05795 18.70585,1.56916 -0.30222,8.49632 -3.09704,11.56528 -10.13789,11.46488 -19.06703,-0.27182 -38.1342,-0.55575 -57.1993,-0.9345 -7.68053,-0.15259 -10.57149,-3.17083 -11.19779,-12.12576 19.75635,0 39.46043,0 59.82913,0.0262 z"
   id="path13"
   style="stroke-width:1.41129" />
<path
   fill="#000000"
   opacity="1"
   stroke="none"
   d="m 359.62176,848.699 c -9.51492,-0.26313 -18.43936,-0.70662 -27.35081,-0.52326 -4.59248,0.0945 -6.2719,-1.4012 -6.4097,-5.94562 -0.14453,-4.76621 0.80627,-7.62208 6.40641,-7.51909 10.33749,0.18998 20.68448,-0.12302 31.02128,0.084 2.83602,0.0566 7.69822,-1.12148 6.51469,4.47772 -0.88248,4.17487 0.84299,10.99397 -7.4837,9.73754 -0.69654,-0.10504 -1.40134,-0.15595 -2.69817,-0.31128 z"
   id="path14"
   style="stroke-width:1.41129" />
</svg>
